<svg id="61104430-4919-4588-b180-68a727b4b89b" data-name="Layer 1" xmlns="http://www.w3.org/2000/svg" viewBox="0 0 192.27 182.16"><title>adidas</title><path d="M167.45,162.71C163,162,159,161.79,159,159.4a3.34,3.34,0,0,1,1.41-2.55c0.76-.6,2.77-0.82,4.13-0.82a5.31,5.31,0,0,1,3.69,1.63,5.53,5.53,0,0,1,1.3,2.77h7.22a8.87,8.87,0,0,0-3.37-6.74c-2-1.47-4.62-3.26-8.2-3.26-3.42,0-6.79.11-9.12,1.85s-4,4.51-4,7c0,1.41-.11,3.1.43,4.13a14,14,0,0,0,3.7,4c1.9,1.09,6.35,1.52,8.8,2.17,2,0.49,4.45.6,5,2.61a2.56,2.56,0,0,1-1.14,3,7.91,7.91,0,0,1-4.34,1.19,5.7,5.7,0,0,1-4.4-1.63,13.75,13.75,0,0,1-1.79-3.58H151.1a12.12,12.12,0,0,0,4.29,8.42c2.23,1.79,5.21,2.66,9,2.66s7.11-.65,9.56-2.39a9.91,9.91,0,0,0,3.69-7.66,9,9,0,0,0-1.68-5.49c-2.12-2.77-5.92-3.53-8.53-3.91h0Z" style="fill:#005497;fill-rule:evenodd"/><polygon points="73.26 181.29 80.59 181.29 80.59 150.87 73.26 150.87 73.26 181.29 73.26 181.29 73.26 181.29" style="fill:#005497;fill-rule:evenodd"/><polygon points="73.26 148.81 80.65 148.81 80.65 141.47 73.26 141.47 73.26 148.81 73.26 148.81 73.26 148.81" style="fill:#005497;fill-rule:evenodd"/><path d="M62.56,154.89a17.17,17.17,0,0,0-10-3.69H52.19a15.26,15.26,0,1,0,0,30.53h0.38a14.39,14.39,0,0,0,9.94-4.18h0l0.05,3.75h7V141.47h-7v13.42h0Zm-9.94,20.58H52.57a9.07,9.07,0,1,1,0-18.14h0.05a9.07,9.07,0,0,1,0,18.14h0Z" style="fill:#005497;fill-rule:evenodd"/><path d="M108.08,154.78a17.13,17.13,0,0,0-10-3.69H97.7a15.29,15.29,0,1,0,0,30.58h0.38a14.81,14.81,0,0,0,9.94-4.24h0v3.75h7V141.42h-7l0.05,13.36h0Zm-10,20.64a9.07,9.07,0,1,1,9.13-9.12,9.18,9.18,0,0,1-9.13,9.12h0Z" style="fill:#005497;fill-rule:evenodd"/><path d="M27.15,150.87v2.88h0a7.9,7.9,0,0,0-3.69-2.61A17.89,17.89,0,0,0,18,150.05H17.69a16.22,16.22,0,0,0-6.25,1.14,14.72,14.72,0,0,0-5,3.59,16.81,16.81,0,0,0-3.26,5.05,16.87,16.87,0,0,0-1.09,6A15.68,15.68,0,0,0,18,181.88h0.06a16.8,16.8,0,0,0,5.49-1.14c1.63-.6,2.82-1.09,3.58-2.17h0v2.77l7.06-.05-0.05-30.47-7,.05h0ZM18.08,175H18a9,9,0,1,1,0-18h0.06a9,9,0,1,1,0,18h0Z" style="fill:#005497;fill-rule:evenodd"/><path d="M142.35,150.76l0.05,2.88h0a9.12,9.12,0,0,0-3.69-2.61,18.28,18.28,0,0,0-5.43-1H133a17.28,17.28,0,0,0-6.25,1.09,14.41,14.41,0,0,0-5,3.58,14.66,14.66,0,0,0-3.26,5.11,16.69,16.69,0,0,0-1.14,6,15.65,15.65,0,0,0,4.62,11.46,15.39,15.39,0,0,0,11.35,4.56,15,15,0,0,0,5.49-1.14c1.63-.6,2.88-1.09,3.64-2.17h0v2.77l7.06-.05-0.11-30.42h-7Zm-9.07,24.17a9,9,0,1,1,9.07-9.07,9.12,9.12,0,0,1-9.07,9.07h0Z" style="fill:#005497;fill-rule:evenodd"/><path d="M183.79,134.68a0.19,0.19,0,0,1-.11-0.05,8.55,8.55,0,1,0,0,17.11h0.11a8.53,8.53,0,0,0,0-17.06h0Zm0,15.7a7.12,7.12,0,1,1,7.17-7.11,7.16,7.16,0,0,1-7.17,7.11h0Z" style="fill:#005497;fill-rule:evenodd"/><path d="M186.29,144.62a5.79,5.79,0,0,0-1-.81,2.73,2.73,0,0,0,1.85-.92,2.35,2.35,0,0,0,.65-1.63,3.52,3.52,0,0,0-.44-1.52,2.75,2.75,0,0,0-1.09-.87,6.92,6.92,0,0,0-2.17-.22h-4v9.29H182V144h0.33a4.08,4.08,0,0,1,1,.11,1,1,0,0,1,.49.33c0,0.06.05,0.06,0.05,0.11a5.37,5.37,0,0,1,1,1.3h0l1.36,2.06h2.23l-1.14-1.79h0a11.33,11.33,0,0,0-1-1.52h0Zm-2.5-2.06H182v-2.33h1.79a4.26,4.26,0,0,1,1,.05,1.07,1.07,0,0,1,.7.33,0.83,0.83,0,0,1,.27.7,1.15,1.15,0,0,1-.22.76c-0.16.11-.33,0.27-0.49,0.38s-0.65.05-1.3,0.11h0Z" style="fill:#005497;fill-rule:evenodd"/><path d="M78.09,115.6H46.16c9.54,5.91,20.71,9.83,33.42,12.46h0L78.09,115.6h0Zm24.35,0-1.9,11.7h0c12.76-2.35,24-6,33.79-11.7H102.44Zm-3.67-.06-17.55,0h0a60.13,60.13,0,0,0,9.18,13.55,64.41,64.41,0,0,0,8.37-13.58h0ZM146,107.79l-111.71-.06h0c-3.72-3-6.24-4.51-9.24-8.45H155.37a75.44,75.44,0,0,1-9.38,8.51h0ZM162.65,89.6l-144.37.06h0a62.67,62.67,0,0,1-5.51-9.46h155.4a51.78,51.78,0,0,1-5.51,9.4h0ZM59.34,69.95L8.93,70h0A115.3,115.3,0,0,1,0,34.65c26,4.62,46,15.28,59.34,35.3h0ZM111,70H69.53C68.6,43.36,76,16.29,90.27,0c14.5,15.87,22,42.82,20.71,70h0ZM172.42,70L121,70h0c14.19-20,34.57-31.24,61-35.24-1.65,13.35-4.73,24.69-9.57,35.21h0Z" style="fill:#005497;fill-rule:evenodd"/></svg>