
<svg version="1.1" xmlns="http://www.w3.org/2000/svg" xmlns:xlink="http://www.w3.org/1999/xlink" x="0px" y="0px"
	 viewBox="0 0 400 30.7" xml:space="preserve">

<path d="M42.3,15.5L42.3,15.5c0-7.3,5.3-14,13.3-14c3.6-0.1,7.1,1.1,9.8,3.5l-1.3,1.5c-2.3-2.2-5.5-3.3-8.7-3.2
	c-6.6,0-11.1,5.5-11.1,12v0.1c0,7,4.3,12.1,11.5,12.1c3.1,0,6.1-1.1,8.6-3.1v-7.7h-9v-1.9h10.9v10.4c-2.9,2.6-6.7,4-10.6,4
	C47.3,29.3,42.3,23.1,42.3,15.5z"/>
<path d="M73.6,2h19.1v1.9H75.6v10.5H91v1.9H75.6v10.8H93v1.9H73.6V2z"/>
<path d="M99.4,2h1.9l18.6,23.4V2h1.9v26.9h-1.5L101.3,5v23.9h-1.9L99.4,2L99.4,2L99.4,2z"/>
<path d="M129.8,2h19.1v1.9h-17.2v10.5h15.4v1.9h-15.4v10.8h17.3v1.9h-19.3V2z"/>
<path d="M155.5,2h11.3c2.8-0.1,5.5,0.8,7.6,2.7c1.3,1.3,2,3.1,2,5v0.1c0,4.5-3.3,7.1-7.9,7.7l8.8,11.5h-2.5l-8.5-11.1h-8.8v11.1h-2
	L155.5,2L155.5,2L155.5,2z M166.6,16c4.5,0,7.8-2.3,7.8-6.1V9.7c0-3.6-2.8-5.9-7.7-5.9h-9.2V16H166.6L166.6,16z"/>
<path d="M183.6,2h2v26.9h-2V2z"/>
<path d="M192.7,15.5L192.7,15.5c-0.2-7.5,5.7-13.8,13.1-14c0.1,0,0.2,0,0.3,0c3.9-0.1,7.7,1.5,10.5,4.3l-1.4,1.5
	c-2.3-2.5-5.6-4-9.1-4c-6.5,0-11.3,5.3-11.3,12v0.1c0,6.8,5,12.1,11.4,12.1c3.6,0,7-1.5,9.3-4.2l1.3,1.3c-2.7,3-6.6,4.7-10.7,4.7
	c-7.4,0.1-13.4-5.8-13.5-13.2C192.6,15.9,192.6,15.7,192.7,15.5z"/>
<path d="M233.7,2h1.9l10.8,15.9L257.2,2h1.9v26.9h-2V5.5L246.5,21h-0.1L235.6,5.5v23.4h-1.9L233.7,2L233.7,2L233.7,2z"/>
<path d="M265.3,19.2L265.3,19.2c-0.1-5.7,4.4-10.3,10-10.3c3,0,5.9,1.3,7.8,3.6l-1.3,1.3c-1.6-2-4-3.2-6.6-3.2
	c-4.5,0.1-8,3.8-7.9,8.3c0,0,0,0.1,0,0.1v0.1c-0.1,4.5,3.5,8.3,8,8.5l0,0c2.6-0.1,5-1.3,6.6-3.3l1.3,1.2c-3.5,4.3-9.8,5.1-14.1,1.6
	C266.7,25.1,265.3,22.2,265.3,19.2z"/>
<path d="M289.1,2h2V27h15.8v1.9H289L289.1,2L289.1,2L289.1,2z"/>
<path d="M310.1,15.5L310.1,15.5c0-7.6,6-13.6,13.5-13.7c7.5,0,13.6,6,13.6,13.5v0.1c0,7.5-6,13.6-13.5,13.6
	C316.2,29,310.1,23,310.1,15.5z M335.1,15.5L335.1,15.5c0-6.7-4.8-12.2-11.5-12.2c-6.7,0-11.4,5.3-11.4,12v0.1
	c0,6.7,4.8,12.1,11.5,12.1C330.4,27.5,335.1,22.2,335.1,15.5L335.1,15.5L335.1,15.5z"/>
<path d="M342.8,15.5L342.8,15.5c0-7.3,5.3-14,13.3-14c3.6-0.1,7.1,1.1,9.8,3.5l-1.3,1.5c-2.3-2.2-5.4-3.3-8.6-3.2
	c-6.6,0-11.1,5.5-11.1,12v0.1c0,7,4.3,12.1,11.5,12.1c3.1,0,6.1-1.1,8.6-3.1v-7.7h-9v-1.9h10.9v10.4c-2.9,2.6-6.7,4-10.6,4
	C347.8,29.3,342.8,23.1,342.8,15.5z"/>
<path d="M372.9,15.5L372.9,15.5c0-7.6,6-13.6,13.5-13.7c7.5,0,13.6,6,13.6,13.5v0.1c0,7.5-6,13.6-13.5,13.6
	C379,29,373,23,372.9,15.5L372.9,15.5z M397.9,15.5L397.9,15.5c0-6.7-4.8-12.2-11.5-12.2S375,8.6,375,15.3v0.1
	c0,6.7,4.8,12.1,11.5,12.1C393.2,27.5,397.9,22.2,397.9,15.5C397.9,15.5,397.9,15.5,397.9,15.5z"/>
<path d="M6.1,30.7L8,19.5l-8-7.8l11.1-1.6l5-10.1l5,10.1l11.1,1.6l-8,7.8L26,30.7l-9.9-5.3L6.1,30.7z M16.1,23.3l7.5,3.9l-1.4-8.3
	l6.1-5.9l-8.4-1.2L16,4.3l-3.7,7.5L4,13l6,5.9l-1.4,8.3L16.1,23.3z"/>
</svg>
