<?xml version="1.0" encoding="utf-8"?>
<!-- Generator: Adobe Illustrator 16.0.4, SVG Export Plug-In . SVG Version: 6.00 Build 0)  -->
<!DOCTYPE svg PUBLIC "-//W3C//DTD SVG 1.1//EN" "http://www.w3.org/Graphics/SVG/1.1/DTD/svg11.dtd">
<svg version="1.1" id="Layer_1" xmlns="http://www.w3.org/2000/svg" xmlns:xlink="http://www.w3.org/1999/xlink" x="0px" y="0px"
	 width="19px" height="19.001px" viewBox="502.5 502.499 19 19.001" enable-background="new 502.5 502.499 19 19.001"
	 xml:space="preserve">
<path d="M520.977,520.977c-0.697,0.697-1.826,0.697-2.523,0l-3.149-3.149c-1.295,0.831-2.825,1.325-4.478,1.325
	c-4.598,0-8.327-3.728-8.327-8.326c0-4.599,3.729-8.327,8.327-8.327c4.6,0,8.327,3.728,8.327,8.327c0,1.652-0.496,3.183-1.326,4.479
	l3.149,3.148C521.674,519.15,521.674,520.279,520.977,520.977z M510.826,504.878c-3.285,0-5.948,2.663-5.948,5.948
	s2.663,5.947,5.948,5.947c3.285,0,5.947-2.662,5.947-5.947S514.111,504.878,510.826,504.878L510.826,504.878z"/>
</svg>
