<?xml version="1.0" encoding="utf-8"?>
<!-- Generator: Adobe Illustrator 16.0.4, SVG Export Plug-In . SVG Version: 6.00 Build 0)  -->
<!DOCTYPE svg PUBLIC "-//W3C//DTD SVG 1.1//EN" "http://www.w3.org/Graphics/SVG/1.1/DTD/svg11.dtd">
<svg version="1.1" id="Layer_1" xmlns="http://www.w3.org/2000/svg" xmlns:xlink="http://www.w3.org/1999/xlink" x="0px" y="0px"
	 width="19px" height="19px" viewBox="502.5 502.5 19 19" enable-background="new 502.5 502.5 19 19" xml:space="preserve">
<path fill="#F2F4F5" d="M520.977,520.977c-0.696,0.697-1.825,0.697-2.522,0l-3.149-3.148c-1.295,0.83-2.824,1.324-4.478,1.324
	c-4.599,0-8.327-3.729-8.327-8.326s3.729-8.326,8.327-8.326c4.6,0,8.327,3.729,8.327,8.326c0,1.652-0.496,3.184-1.326,4.479
	l3.148,3.148C521.674,519.151,521.674,520.28,520.977,520.977z M510.826,504.877c-3.285,0-5.948,2.664-5.948,5.949
	s2.663,5.947,5.948,5.947s5.947-2.662,5.947-5.947S514.111,504.877,510.826,504.877L510.826,504.877z"/>
</svg>
